<svg xmlns="http://www.w3.org/2000/svg" viewBox="0 0 283.42 63.72"><defs><style>.cls-3{fill:#4b9228}.cls-5{fill:#1d1d1b}</style><clipPath id="clip-path" transform="translate(-.04)"><path fill="none" d="M0 0h283.46v63.72H0z"/></clipPath></defs><g id="Lager_2" data-name="Lager 2"><g clip-path="url(#clip-path)" id="Lager_1-2" data-name="Lager 1"><path class="cls-3" d="M19.27 7.84c.09.13.25.25.35.38s.14.28.25.42.28.28.38.42.23.4.38.6c.49.67 1 1.34 1.43 2a6.74 6.74 0 0 0 .38.64c.27.5.57 1 .86 1.46a27.66 27.66 0 0 0 1.56 2.71c.38.58.72 1.19 1.11 1.76.47.74.94 1.47 1.46 2.16a11.51 11.51 0 0 0 1.79 2h.05a5 5 0 0 0 1 .76v.08a13.07 13.07 0 0 0 1.87.94.11.11 0 0 0 .08 0c0 .08.13.09.2.08v.05a11 11 0 0 0 1.85.51 4.29 4.29 0 0 0 .78.15.39.39 0 0 0 .28 0 5.12 5.12 0 0 0 .87.08 2.36 2.36 0 0 0 .85 0 .28.28 0 0 0 .2 0c.08.06.21 0 .32 0h.23a3.18 3.18 0 0 0 .62 0c.1.07.21 0 .28 0a1.31 1.31 0 0 0-.19.07c.11 0 .19-.07.28 0a1.84 1.84 0 0 1 .75-.12 1 1 0 0 0 .22-.05h.07a5.67 5.67 0 0 0 1.21-.19 2.35 2.35 0 0 0 .64-.12c.16 0 .33-.05.48-.08l.81-.21c.11 0 .21-.08.32-.11a2 2 0 0 0 .41-.07l.24-.06c.61-.08 1.24-.23 1.82-.28s.72-.14 1-.18a5.61 5.61 0 0 1 .85-.06 9.69 9.69 0 0 1 1.53.18s.21.1.33.07.45.24.72.32a.82.82 0 0 0 .2.12s0 .08.06.1a1.11 1.11 0 0 1 .34.18 8.91 8.91 0 0 1 .81 1.1 1.54 1.54 0 0 0 .08.19c.18.47.27.43.38.79a4.6 4.6 0 0 1 .22.94 8.32 8.32 0 0 1 0 1.34v.77c0 .24-.11.45-.14.62a1.88 1.88 0 0 1-.24.7 2.72 2.72 0 0 1-.24.35 2.89 2.89 0 0 1-.59.53A8.85 8.85 0 0 1 50.1 33c-.11 0-.31.31-.34.13a2.78 2.78 0 0 1-.71.62c-.07 0-.27.31-.34.37s-.53.57-.75.78h-.06a1 1 0 0 1-.17.18c-.23.26-.39.57-.6.85-.05.06-.13.1-.13.19a4.27 4.27 0 0 0-.45.88v.07a1.14 1.14 0 0 0-.16.38.32.32 0 0 0-.1.25 2.9 2.9 0 0 0-.22.89A1.33 1.33 0 0 0 46 39a12.12 12.12 0 0 0-.11 1.47v2.11c.1.46.2.91.31 1.36s.23.69.31 1c0 .17 0 .34.06.51s.21.56.28.84.06.5.13.75.2.53.26.79.11.72.2 1.08.18.48.23.72.06.55.11.82.19.63.24.94l.17.27a.47.47 0 0 1 0 .09v.05a4.39 4.39 0 0 0 .3 1.12 1.18 1.18 0 0 0 .19.69c.13.36.14.71.28 1.05a.59.59 0 0 0 .05.25.31.31 0 0 0 0 .1.14.14 0 0 0 0 .11.5.5 0 0 0 .1.27v.76a.76.76 0 0 0 .06.34.12.12 0 0 0 0 .07c0 .17-.08.34-.11.51a1.53 1.53 0 0 0-.13.32l.06.06s-.09.05-.1.1c-.06.23-.14.47-.22.71a6.14 6.14 0 0 0-.25.59c-.07 0-.06.06-.11.09s0 .1-.07.13 0 0 0 .06a4.48 4.48 0 0 1-.61.8l-.11.07a.06.06 0 0 1 .06 0s-.06.13-.14.12 0 0 0 .08-.1 0-.12.06-.15.17-.15.2a3.37 3.37 0 0 1-.35.22c0 .1-.1.1-.15.14s-.16.07-.16.11-.1.14-.27.15-.11.19-.29.28c0 .13-.15.17-.28.16s-.17.08-.24.13c.13.11.54 0 .91 0 0 0 .41-.08-.39.24s0 0 0 .07 0 .07-.08.08a.07.07 0 0 0-.12 0s.05 0 0 0-.67.27-.68.32.22 0 .3 0 .51-.1.6-.16.14 0 .09-.07a.37.37 0 0 0 .18-.11c.13 0 .08-.19.14 0s.09-.11.08-.08.58-.49.68-.47-.55.49-.57.55-.21.09-.27.21-.42.3-.35.37a11 11 0 0 0 1.31-.66c0 .26-.66.52-.67.57a.08.08 0 0 1-.07 0c-.05.14-.14.2-.2.32a.54.54 0 0 1 0 .15h.08c.06-.1.18-.11.28-.16s.05.06 0 .12.21-.13.3-.11.02.17.02.17.07-.05.08-.09a3.56 3.56 0 0 0 .51-.27.11.11 0 0 0 0-.19h.17c.11 0 .39-.18.4-.32l.18-.05V62a.26.26 0 0 0 .15-.07l.07-.08a.21.21 0 0 0 .18-.18 2.81 2.81 0 0 0 .31-.29v-.05a.11.11 0 0 0 0-.11.55.55 0 0 1 .19-.22h.06c.06 0 0 0-.06-.05s.1-.16.17-.15 0 0 0-.07.06.05.07 0-.05 0 0-.07.06-.13.15-.12 0 0 0-.06 0 0 .06 0c.1-.22.31-.29.39-.54.09 0 0-.16.05-.24s0 0 .06 0a1 1 0 0 0 .2-.33s.06 0 .12-.14a.74.74 0 0 0 .11-.1c.1-.12 0-.19.13-.3-.06-.11.14-.08.11-.28.11 0 .18-.21.15-.29.2 0 .14-.2.19-.33l.07-.08.11-.12c.13-.07 0-.11.14-.21 0 .05 0-.15.06-.12s0-.06.06-.07 0-.06 0-.08.06-.17.12-.23 0-.1.06-.16-.06 0-.06 0v-.06c.19-.36.08-.3.21-.69a.16.16 0 0 0-.06-.17c.15-.32.27-.15.3-.51a2.34 2.34 0 0 0 .09-.33c0-.05.11-.25.12-.3s.1-.26.09-.3a.25.25 0 0 0 0-.23c0-.11.12-.22.07-.33s0-.13.08-.21a.94.94 0 0 1 .08-.45c-.09-.33 0-.17 0-.53 0 0 0-.26.07-.27s0-.29 0-.41v-.27a5.81 5.81 0 0 0 .06-.79c0-.26 0-.53-.08-.81s-.14-.61-.19-.93 0-.41 0-.62-.09-.52-.15-.78-.16-.42-.21-.63-.08-.6-.15-.9-.19-.73-.28-1.1l.11-1.24v-.41c-.06-.28-.19-.55-.24-.82s0-.56-.06-.82-.13-.63-.14-.93a5.36 5.36 0 0 1 0-.9 3.78 3.78 0 0 1 .27-1.1 3.68 3.68 0 0 1 .7-.9 1.75 1.75 0 0 1 .86-.52l.14-.06c.08 0-.18-.06-.11-.08h.08a1.54 1.54 0 0 0 .31-.17c.34-.15.61-.36.93-.53v-.07c0-.01.05 0 .07 0a14.86 14.86 0 0 0 1.36-1v-.06c0-.06.18-.18.3-.24a1 1 0 0 1 .08-.14.27.27 0 0 0 .16-.17c.2-.12.28-.36.46-.51v.06a.18.18 0 0 0-.07.15s-.1.07-.06.13.1-.08.1-.18.06-.06.06-.12h.07s.1-.19.09-.26c.18-.32.37-.52.54-.88a8 8 0 0 0 .39-1.1 2.16 2.16 0 0 1 .1-.25 3.81 3.81 0 0 0 .14-.47c.05-.15.14-.29.11-.41s.06-.16.09-.25.09-.3.12-.46A7.27 7.27 0 0 0 59 29v-1.22c-.05-.46-.1-.91-.18-1.35s-.15-.76-.25-1.11a3.59 3.59 0 0 0-.17-.34 6.23 6.23 0 0 0-.15-.62 6.71 6.71 0 0 0-.35-.77c-.06-.13-.19-.24-.25-.36s0-.21-.11-.31-.1-.16-.14-.24l-.4-.47c0-.06-.1-.09-.13-.12a3.56 3.56 0 0 0-.4-.69c-.15-.21-.3-.41-.46-.61s-.09-.19-.16-.28a8.07 8.07 0 0 0-1.24-1.17.69.69 0 0 0-.31-.24c-.07-.1-.21-.14-.29-.23s-.11-.06-.15-.09c-.21-.14-.12-.24-.35-.35a15.23 15.23 0 0 0-2.11-.85h-.06c0-.06-.09 0-.13 0a6.52 6.52 0 0 0-1.37-.26 8.74 8.74 0 0 0-2.7 0h-1.46l-1.4.3-1 .18-.78.2-1 .2c-.42.09-.88.19-1.25.3l-.28.11a1 1 0 0 0-.18 0 12.75 12.75 0 0 1-1.26.24c-.26 0-.53 0-.81.05a13.52 13.52 0 0 1-1.56 0h-.48l-.68-.2h-.19a3 3 0 0 1-.43-.1h-.07a1.1 1.1 0 0 1-.29-.1c0-.07-.16-.08-.23-.09s-.4-.19-.56-.34h-.06c0-.12-.2-.14-.25-.26-.28-.33-.57-.65-.84-1v-.05a1.6 1.6 0 0 1-.33-.4h-.07c-.01 0-.09-.17-.14-.25a2.88 2.88 0 0 0-.3-.39v-.07c-.28-.25-.41-.63-.68-.88-.06-.21-.25-.28-.31-.5A.88.88 0 0 1 30 14a.21.21 0 0 1 0-.11 3.58 3.58 0 0 1-.47-.68c-.1-.05-.13-.16-.21-.22a6.08 6.08 0 0 0-.67-1c0-.11-.11-.19-.16-.29s0 .05-.06 0 0-.07 0-.11-.18-.34-.33-.41a.16.16 0 0 0 0-.1 1.89 1.89 0 0 0-.25-.31.24.24 0 0 0-.11-.15.38.38 0 0 0-.15-.23 3 3 0 0 0-.32-.47s-.06 0-.08-.06c-.26-.46-.59-.84-.88-1.27l-.07-.06A16.52 16.52 0 0 0 25 7l-.3-.25a6.65 6.65 0 0 0-.88-.88.61.61 0 0 0-.19-.2 13.79 13.79 0 0 0-1.12-1s-.15-.16-.27-.19-.1-.08-.13-.15h-.05c-.17-.18-.4-.31-.57-.48h-.07a.68.68 0 0 0-.34-.25v-.06c-.27-.14-.44-.36-.71-.48a10.15 10.15 0 0 0-1.68-1c-.3-.1-.52-.27-.83-.36l-.27-.14a.82.82 0 0 0-.19-.09h-.1l-.11-.08a1.33 1.33 0 0 1-.19-.05v-.09c0-.04-.15 0-.23-.08a.44.44 0 0 1-.28 0s0-.05.06-.08c-.23-.23-.38-.21-.55-.33a.1.1 0 0 1-.15 0 .12.12 0 0 0-.19 0c-.11-.1-.23 0-.32 0h.06a.63.63 0 0 1-.32-.14c-.09 0-.18 0-.27-.11s-.28.07-.25-.08-.08 0-.11 0l-.09.07c-.1-.06-.23 0-.32-.1s-.18-.12-.24 0-.11-.08-.19 0C13.5 0 13.25.14 13 0v.06c0 .01-.24 0-.38-.09s0 0 0 .05.07 0 .09.05a.28.28 0 0 0 0 .09.28.28 0 0 0 .2 0v.08c0 .03-.09 0-.13 0a.7.7 0 0 0-.31 0c.05.07.12 0 .17 0s0 0 0 .07-.25 0-.37 0-.28.06-.42.07 0 0-.06-.06-.09 0-.16.06a2.72 2.72 0 0 0 .43.11 1.83 1.83 0 0 1-.74 0h-.11c-.01 0 .28.07.41.15-.1.06-.18 0-.28 0s-.16 0-.13-.09c-.06.07.08.1.12.1-.22.15-.46-.16-.62.06-.13 0-.26 0-.36-.06s-.07 0-.1 0h-.17c-.06 0-.2-.05-.26 0a2.16 2.16 0 0 1 .49.11h.36c.12 0 0 0 0 .06s.07 0 .11 0 0 0 0-.05a3.32 3.32 0 0 1 .53.08h-.13c-.04 0 .15 0 .23.08h-.07c-.16-.15-.36 0-.53-.13h-.07l-.06-.05s.06 0 0 .05-.17-.07-.27 0 0 .08.05.09 0 0 0-.06.08 0 .07.08a3.68 3.68 0 0 0-.53.25 3.88 3.88 0 0 0 .45.14c0-.05 0-.07.11 0s0 0 0 .07.08 0 .12 0 0 .11 0 .13v-.06a2.43 2.43 0 0 1 .67.32c.08 0 .16 0 .21.13a2.54 2.54 0 0 1 .28.16v.09c.12 0 .27.12.35.19-.11 0-.3.08-.36-.09h-.11.05-.09c-.03 0 0 0 0-.08s-.09.05-.13 0 0-.07 0-.14-.08 0-.12 0a1 1 0 0 1-.2-.15h.08a.81.81 0 0 0-.22 0c0 .06.09 0 .12.06s.09 0 .06.09-.21-.07-.35-.18c-.19.05-.27-.18-.44-.21v-.08a.34.34 0 0 0-.12-.06c0 .05.1.05.09.1a.53.53 0 0 1-.28 0c0-.06-.07-.06-.1-.1a4.27 4.27 0 0 0-.7-.12c.25.12.59.2.88.33a.39.39 0 0 1 .35.19c.19 0 .32.22.5.26s.1 0 .14.08 0 0 .08 0 0 0 0 .05.1 0 .17.09 0 0 .06 0 .3.16.45.27.17 0 .2.11a.36.36 0 0 1 .26.14 2.2 2.2 0 0 1 .47.26c.08 0 .16 0 .23.13a.07.07 0 0 1 .06 0c.26.11.51.3.78.43.06.12.2.15.3.2V4l.09.05h.06a.13.13 0 0 0 0 .06.25.25 0 0 0 .14 0v.06c0 .06.2 0 .2.11s.15 0 .18.1a.64.64 0 0 1 .19.13c.76.4 1.38.92 2.1 1.35a2.71 2.71 0 0 0 .46.36c.25.27.53.51.76.8h.08c.21.14.33.37.54.52zm29.14 27.83a1.61 1.61 0 0 1-.33.32 1.1 1.1 0 0 0-.27.35 1.38 1.38 0 0 0-.17.32c-.19.21-.06.13-.22.42v.13a3.47 3.47 0 0 0-.23.61.34.34 0 0 0-.14.24v.23a3.46 3.46 0 0 0-.1.71 1 1 0 0 0-.07.37 1.54 1.54 0 0 0 0 .74 1 1 0 0 0-.15.38 7.88 7.88 0 0 0 0 1.09v.14a2.67 2.67 0 0 1 0 .35h-.08c.01 0 0-.45 0-.45v-.26l.06-.18a10 10 0 0 1 0-1.22v-.25a1.55 1.55 0 0 1 .09-.74 1.84 1.84 0 0 1 .07-.37 3.19 3.19 0 0 1 .26-.87.29.29 0 0 1 .1-.24 1.4 1.4 0 0 1 .16-.38V37a4.52 4.52 0 0 1 .44-.85c0-.08.08-.12.12-.18H48l.12-.24.17-.11.18-.15.1-.17.26.09zm8.31-11.73a1.06 1.06 0 0 0-.14-.33c0-.28-.06-.13-.19-.44l-.07-.12a3.86 3.86 0 0 0-.32-.56.39.39 0 0 0-.11-.26 1.15 1.15 0 0 0-.14-.17c-.11-.23-.3-.31-.49-.53s-.15-.23-.25-.29a1.48 1.48 0 0 0-.55-.5 1.07 1.07 0 0 0-.2-.36 7.91 7.91 0 0 0-.79-.75l-.12-.07a3.2 3.2 0 0 1-.24-.26s.07-.06.1 0l.36.26.23.13.1.16c.31.2.56.63.85.88.08.06.15.1.18.19a1.52 1.52 0 0 1 .51.53c.1.06.16.19.25.29a3.84 3.84 0 0 1 .51.75.35.35 0 0 1 .12.23 1.3 1.3 0 0 1 .19.37 4.68 4.68 0 0 1 .38.88c.06.06 0 .14.06.21l-.07.11zm.06 1.56a1.24 1.24 0 0 0-.1-.35c0-.28 0-.14-.14-.45l-.06-.13a3.37 3.37 0 0 0-.25-.59.4.4 0 0 0-.08-.28s-.12-.16-.12-.18c-.09-.23-.27-.34-.43-.58a1.27 1.27 0 0 0-.21-.32 1.63 1.63 0 0 0-.49-.56.93.93 0 0 0-.16-.37 8.2 8.2 0 0 0-.7-.84l-.11-.09a2.54 2.54 0 0 1-.21-.28s.08-.05.1 0 .33.3.33.3l.22.16.08.17a10.74 10.74 0 0 1 .74 1c.07.07.14.12.16.2a1.67 1.67 0 0 1 .45.6c.09.07.13.2.21.31a3.26 3.26 0 0 1 .42.8.35.35 0 0 1 .1.24 1.64 1.64 0 0 1 .14.39 4.41 4.41 0 0 1 .27.91c.06.07 0 .14.05.22l-.09.1zm-8.45 11.31a2.42 2.42 0 0 1-.25.34 1.25 1.25 0 0 0-.2.34 1.34 1.34 0 0 0-.13.27c-.14.21.06-.08 0 .13v.09a2.39 2.39 0 0 0-.14.43.27.27 0 0 0-.1.18v.66a.8.8 0 0 0 0 .26.92.92 0 0 0 0 .52.85.85 0 0 0-.1.28 6.42 6.42 0 0 0 0 .76v.1a2.32 2.32 0 0 1 0 .24h-.07l-.05-.31v-.31a8.38 8.38 0 0 1 0-.86v-.18a1 1 0 0 1 0-.51 1.36 1.36 0 0 1 0-.27 2.7 2.7 0 0 1 .14-.62.22.22 0 0 1 .07-.17 1 1 0 0 1 .1-.27 2.27 2.27 0 0 1 .2-.42c0-.06 0-.11.08-.16l.11-.07.09-.2.13-.15.14-.17.07-.15.23-.06zM27.07 17.12c-.06-.1-.15-.14-.2-.24a3.75 3.75 0 0 0-.21-.5A9.71 9.71 0 0 1 25.9 15c0-.08-.12-.14-.16-.21-.23-.42-.36-.82-.63-1.25v-.07c-.16-.12-.15-.33-.29-.46s0-.06 0-.09-.14-.18-.2-.3-.15-.14-.2-.24a4.14 4.14 0 0 1-.38-.76c-.09 0-.13-.15-.17-.24.19.06.21.32.39.39 0 .22.3.41.26.57s.08 0 .11 0 0 .1 0 .16a.31.31 0 0 1 .16.32.8.8 0 0 1 .21.18 6 6 0 0 0 .48.85v.07c0 .07.06 0 .09 0a4.62 4.62 0 0 0 .28.48h-.05c-.05 0 .09 0 .12.1.07.27.34.54.42.83.06.05.13.15.09.22s.23.23.21.36a6.31 6.31 0 0 1 .7 1.11l-.07.05c-.07.05.25.07.25.23s.08.14.15.23.09 0 .14.08c.13.44.57.78.76 1.27 0 0 .08 0 .11.07a12.72 12.72 0 0 0 1 1.32v.07l.18.18a7 7 0 0 1-.75-.78c-.34-.22-.54-.73-.85-1.05v-.1c-.29-.38-.48-.82-.74-1.15-.1-.13-.26-.21-.23-.4m-.69-7.78c0-.05 0-.08 0 0s0 .1.05.14a.44.44 0 0 1 .11.17l.07.11c.07 0 .18.28.26.36a.61.61 0 0 0 .14.18 6.23 6.23 0 0 0 .49.71v.06c0 .06.06.06.11.11s.1.2.13.2.14.25.17.24a.3.3 0 0 1 0 .08l.07.11a2.69 2.69 0 0 1 .16.29c.07.09.06 0 .13.09v.12c0 .06 0 0 0 0l.05.1a.54.54 0 0 0 .05.11v-.05a1 1 0 0 1 .09.15v.08a.85.85 0 0 1-.09-.14l-.07-.07a.19.19 0 0 0 0 .07s.12.19.15.17 0 .05 0 .1 0 0 .07.05a.53.53 0 0 0 .09.21s.05 0 .1.13a.34.34 0 0 0 0-.1s0 .07.07.11 0 0 0 .07a.77.77 0 0 1-.12-.13c0 .07 0 0 0 0a.19.19 0 0 1 0 .08s0 .05 0 0a.17.17 0 0 1 .06.09v.08c0 .08.07 0 .1 0a1.06 1.06 0 0 0 .1.17v.05a.41.41 0 0 0 .06.11c0 .11-.07 0-.13-.13s-.15-.21-.22-.33a1.14 1.14 0 0 0-.13-.22v-.07c0-.07 0 0-.06-.06s0-.05 0-.06a1.41 1.41 0 0 1-.13-.24c-.12-.17-.29-.48-.41-.62A1.17 1.17 0 0 1 28 12a1.06 1.06 0 0 1-.17-.26 2.63 2.63 0 0 1-.34-.51.85.85 0 0 1-.19-.27c-.13-.14-.33-.51-.46-.68v-.05c0-.05.06.07.08.08-.12-.19-.2-.31-.32-.47 0 0 0 .06 0 0a3.71 3.71 0 0 0-.36-.53v-.06a.45.45 0 0 1 .16.16m24.52 33.67s0-.08 0 0v.14a.44.44 0 0 1 0 .2c0 .05 0 0 0 0a.61.61 0 0 1 0 .13c0 .06.07.33.11.42a.61.61 0 0 0 .07.22 6.42 6.42 0 0 0 .21.84.13.13 0 0 0 0 .06s0 .07.06.14a.58.58 0 0 0 0 .24c0 .13.05.28.08.28a.31.31 0 0 1 0 .09v.12a1.75 1.75 0 0 1 0 .33c0 .11.06 0 .09.13v.06a.15.15 0 0 0 0 .07.41.41 0 0 0 0 .11.56.56 0 0 1 0 .13v-.04.23a.35.35 0 0 1 0-.16l-.05-.08v.07s.05.22.08.21 0 0 0 .11v.08a.56.56 0 0 0 0 .22s0-.05 0 0a.28.28 0 0 1 0 .15.79.79 0 0 0 0-.09v.19a.59.59 0 0 1-.07-.16c0 .07 0 0 0 0v.08c0 .02 0 .07 0 0a.81.81 0 0 1 0 .11.41.41 0 0 1 0 .1h.08a1 1 0 0 0 0 .2c0 .06 0 0-.05 0a.6.6 0 0 0 0 .12c0 .11-.06 0-.08-.17s-.06-.24-.09-.38a.9.9 0 0 0 0-.25v-.15a.15.15 0 0 1 0-.07c0-.06 0 0 0 0a1.36 1.36 0 0 1 0-.27c-.06-.19-.11-.55-.17-.72s0-.08 0-.12a1.2 1.2 0 0 1-.07-.3 3.14 3.14 0 0 1-.14-.6.89.89 0 0 1-.07-.32c-.08-.18-.14-.59-.2-.8v.12c0-.22-.08-.36-.14-.56 0 0 0 .06 0 0 0-.32-.09-.38-.14-.62a.17.17 0 0 1 0-.07.57.57 0 0 1 .1.21M29.45 21.52a6.28 6.28 0 0 1-.64-.74 8 8 0 0 1-.7-.92v-.06c-.24-.32-.37-.62-.57-.91-.08-.1-.24-.23-.17-.3s-.14-.14-.17-.21-.05-.22-.13-.34a7.7 7.7 0 0 1-.57-1c0-.06-.1-.12-.13-.18-.17-.31-.24-.56-.45-.9-.14-.14-.1-.23-.23-.36s0 0 0-.05a.44.44 0 0 1-.16-.24c0-.06-.13-.14-.17-.21a3.2 3.2 0 0 1-.26-.54.46.46 0 0 1-.14-.2c.18.12.17.25.33.37 0 .12.24.34.18.4s.08 0 .1.07 0 0 0 .09.15.18.12.23l.15.11a4.12 4.12 0 0 0 .35.64h-.05s.06 0 .08.05a3.47 3.47 0 0 0 .21.37h-.05c-.05 0 .08.06.11.1s.25.43.29.6.11.13.06.15.2.23.16.27a8.64 8.64 0 0 1 .54.87h-.08c.07.07.23.15.21.22s.06.1.12.18l.13.11c.07.28.46.65.58 1 0 0 .07.05.09.09.26.38.45.68.78 1.1l.16.17M49.34 54a7 7 0 0 1-.27-.89 7.93 7.93 0 0 1-.33-1.11v-.06c-.14-.38-.17-.71-.29-1 0-.12-.15-.28-.07-.34a2.6 2.6 0 0 1-.1-.25v-.36a9.91 9.91 0 0 1-.28-1.2c0-.06 0-.14-.07-.21-.07-.35-.07-.61-.17-1-.1-.18 0-.25-.12-.41a.45.45 0 0 1-.08-.28c0-.06-.08-.17-.1-.24a2.56 2.56 0 0 1-.09-.6.42.42 0 0 1-.08-.23c.14.17.09.29.21.45 0 .11.13.4.06.44s.06.06.07.09 0 0 0 .08.09.22 0 .26a.83.83 0 0 1 .11.15 5.33 5.33 0 0 0 .15.71H48a3.38 3.38 0 0 0 .09.41c0 .05 0 .08.07.13s.12.48.11.65.06.16 0 .17.13.27.07.3a5.89 5.89 0 0 1 .27 1h-.07c-.07 0 .17.21.13.27s0 .12.06.21a1.19 1.19 0 0 1 .09.15c0 .28.26.75.28 1.1 0 0 .05.07.06.11a12.87 12.87 0 0 0 .3 1.28h-.09c.01 0 .13.14.16.21h-.1M27.5 19.64c0 .05 0 .08 0 0v-.14a.47.47 0 0 1-.1-.18l-.06-.11c-.06-.05-.16-.3-.23-.38a.58.58 0 0 0-.13-.19 7.63 7.63 0 0 0-.44-.74.13.13 0 0 1 0-.06s-.06-.06-.11-.12a.45.45 0 0 0-.11-.21c-.05-.12-.13-.25-.16-.25a.13.13 0 0 1 0-.08L26 17.1a1.68 1.68 0 0 1-.15-.3c-.06-.1-.06 0-.12-.1v-.16l-.05-.1v-.18.12a1.19 1.19 0 0 1-.08-.16v-.07a.58.58 0 0 1 .08.14l.07.07c.07.07 0 0 0-.07s-.11-.2-.14-.17a.36.36 0 0 0 0-.11l-.06-.06a1.45 1.45 0 0 0-.08-.21s0 .06 0 0a.55.55 0 0 1-.09-.14v.1s0-.07-.06-.12 0 0 0-.06a.57.57 0 0 1 .11.14c0-.08 0 0 0 0a.11.11 0 0 1 0-.08s0-.05 0 0l-.06-.09a.58.58 0 0 1-.05-.09h-.09c-.03 0 0-.09-.09-.18a.34.34 0 0 0-.05-.11c0-.11.07 0 .13.14s.13.22.19.34a1 1 0 0 0 .12.22.41.41 0 0 0 0 .08l.05.06a.15.15 0 0 1 0 .06c0 .06 0 0 0 0a.9.9 0 0 1 .12.24c.11.17.26.49.37.63a.56.56 0 0 1 0 .12 1.13 1.13 0 0 1 .16.27 3.39 3.39 0 0 1 .31.53.74.74 0 0 1 .16.28c.12.15.31.53.42.71a.17.17 0 0 0 0 .05s-.12-.14-.12-.16c.12.2.19.33.3.5 0 0 0-.06 0 0a4.44 4.44 0 0 0 .32.56.14.14 0 0 0 0 .06s-.08 0-.15-.17m25.14 29.83s0 .08 0 0v-.15a.36.36 0 0 1-.05-.19.61.61 0 0 1 0-.13c0-.06-.07-.33-.11-.42a.61.61 0 0 0-.07-.22 6.52 6.52 0 0 0-.2-.84v-.06c0-.06 0-.08-.07-.15a.43.43 0 0 0 0-.23.52.52 0 0 0-.08-.29.25.25 0 0 1 0-.08s0-.05 0 0a.79.79 0 0 0 0-.13 1.64 1.64 0 0 1 0-.32c0-.11-.06 0-.09-.13s0 0 0-.06v-.17a.48.48 0 0 0 0-.12v-.08.12a.86.86 0 0 1 0-.17v-.07a1.57 1.57 0 0 1 0 .16v.09a.17.17 0 0 0 0-.07s0-.23-.08-.21 0 0 0-.11 0-.06 0 0 0-.05-.05-.08a.56.56 0 0 0 0-.22s0 .05 0 0a1.66 1.66 0 0 1-.05-.16.94.94 0 0 0 0 .09v-.19a.54.54 0 0 1 .07.17c0-.08 0 0 .05 0s0-.06 0-.08 0-.06 0 0v-.11c0-.06 0 0 0 0a.41.41 0 0 1 0-.1s0-.05-.08 0a1 1 0 0 0 0-.2.74.74 0 0 0 0-.12c0-.11.06.06.08.17s.06.25.08.38a1.31 1.31 0 0 0 .05.25v.22c0 .06 0 0 0 0a.77.77 0 0 1 0 .26c0 .2.1.55.16.72s0 .09 0 .12a1.29 1.29 0 0 1 .07.31 3 3 0 0 1 .14.59 1.27 1.27 0 0 1 .07.32c.07.18.14.6.19.8v.05s0-.07-.05-.1c.05.23.09.37.14.56 0 0 0-.06 0 0a5.09 5.09 0 0 0 .14.63v.06a.36.36 0 0 1-.09-.2M29.69 14.54c-.05-.19-.22-.28-.29-.51.08 0 .14 0 .2.09s0 .05 0 .06.09 0 .12 0 0 .08 0 .06-.05 0-.07 0 .16.12.26.26a.22.22 0 0 1-.21 0m-5.38-.71c0-.18-.21-.28-.28-.5.08 0 .14 0 .2.09s0 0 0 .05.08 0 .12 0 0 .07 0 .05-.05 0-.07 0a.57.57 0 0 1 .25.26c-.08.05-.14 0-.21 0m32.85 11.35c0-.19-.15-.32-.16-.55.08 0 .13.06.17.13s.08 0 .1.07 0 .08 0 .06 0 0-.07 0a.7.7 0 0 1 .19.32c-.08 0-.14 0-.2-.08" transform="translate(-.04)"/><path d="M18.27 23.23a8 8 0 0 1-.4-.88c0-.13-.29-.76-.46-1.28a14.31 14.31 0 0 0-3.65-5.66c-.22-.24-.76-.63-.79-.68-.17-.23-.76-.48-.89-.62s-.27-.21-.7-.37l-.38-.17c-.09 0-.26 0-.37-.05a6.1 6.1 0 0 0-.7-.14c-.4-.05-.69 0-1.18-.09-.15 0-.37-.06-.65-.07a6.35 6.35 0 0 1-.91-.09 1.8 1.8 0 0 1-.94-.47 5.43 5.43 0 0 1-.61-.58A5.49 5.49 0 0 1 5 11a3.21 3.21 0 0 1-.31-.95 4.22 4.22 0 0 1-.19-.57 2.09 2.09 0 0 1 0-.61c0-.11 0-.32.11-.34 0-.28.27-.46.31-.73S6 6.69 6.08 6.62a.44.44 0 0 1 .26-.2v-.07c0-.02.14 0 .12-.1-.16.09-.41.17-.49.32-.08 0-.12.06-.2.08s-.15.13-.2.11c.07-.18.31-.28.41-.43-.06 0-.12.08-.22.08a.14.14 0 0 1-.15.12v.07c0 .07-.06 0-.08 0s0-.07 0-.11 0 0-.07.06 0 0 0-.06h.12s.17-.14.26-.2.18 0 .17-.14-.2.12-.32.13.08 0 .06-.08c-.19 0-.2.19-.39.18s-.23.25-.34.24S5 6.51 5 6.46s0 0 .08 0 .14-.2.24-.23c-.07-.06-.1 0-.16 0-.17 0-.21.18-.37.18 0 0 .06 0 .1-.06a3.22 3.22 0 0 1 .66-.6c.09-.07.15-.09.12-.12a.14.14 0 0 0 .11 0s-.06 0 0 0 .13 0 .15-.06-.14 0-.27.09l-.11.06c0 .13-.16.14-.23.13s-.15.1-.2.13A6.58 6.58 0 0 1 6 5.31h-.06c-.06 0 0-.06 0-.07H6s-.06 0 0-.06-.13.09-.17.15-.07 0-.1 0a.19.19 0 0 1-.2 0s-.06 0 0 .1-.19 0-.32.07a.33.33 0 0 1 0 .14c-.1 0-.2.12-.3 0s0 .05 0 .09-.06 0-.1 0a4.55 4.55 0 0 1 .75-.59h-.09a.28.28 0 0 0-.07.09c-.19 0-.34.27-.53.27 0-.09.15-.13.24-.18s-.1 0-.15 0-.43.3-.57.5a1.6 1.6 0 0 0-.57.61h-.06c0 .22-.23.31-.26.51-.25.28-.25.67-.5.92 0 .09 0 .18-.07.24a3.55 3.55 0 0 1-.19.71v.08c-.12.28 0 .63-.05.92.05.07.07.14 0 .19a2 2 0 0 1 .13.64c-.09-.21-.2-.42-.12-.59s0 0-.05-.06a1.84 1.84 0 0 0 0-.5A.76.76 0 0 0 2.5 9a.33.33 0 0 0 0-.13.78.78 0 0 1 .08-.49 1.08 1.08 0 0 1 .23-.66v-.08a5.22 5.22 0 0 1 .72-1.33c.05 0 0 0 .09-.08a.41.41 0 0 1 .21-.29c0-.08.08-.1.13-.14s.12-.16.18-.22a3.47 3.47 0 0 0 .42-.34h.08c.08 0 0-.06 0-.07a5.21 5.21 0 0 0 .63-.45c-.15-.12-.32.14-.48.12v.06a.07.07 0 0 1-.06 0 .2.2 0 0 1-.11.06c0 .06-.06 0-.11.11 0 .13-.25.24-.37.28s0 0 0 .08-.33.2-.35 0h.05c.05 0 0 0 0 0v-.07a6.15 6.15 0 0 1 .9-.64.13.13 0 0 1 .14-.1c0-.07.1-.19.17-.14s0 0 0-.06c.27-.12.44-.28.78-.42v-.08c0-.03-.12 0-.15.06s.08 0 .12 0a.23.23 0 0 1-.2 0v.05c0 .05 0 0 0 0h-.14a1.23 1.23 0 0 1-.46.11v-.06h-.16A.09.09 0 0 1 4.8 4c-.19 0-.29.11-.46.17v.08h-.12c-.04 0-.08 0-.11.11s-.09 0-.12 0 .11-.11.16-.13.16-.23.27-.23a1.29 1.29 0 0 1 .52-.3v-.06c0-.06.18-.09.29-.11-.14-.07-.27.1-.41.08s.06 0 0 0a.15.15 0 0 0-.11.07 2.37 2.37 0 0 0-.32.14v-.06A4.41 4.41 0 0 0 3.9 4s0 .07-.08.1 0 0-.06 0 0 .06 0 .08c-.32 0-.46.35-.7.49a.38.38 0 0 1-.25.26c0 .08-.16.13-.13.22s-.14.17-.24.12c.05-.19.3-.29.37-.48.25-.2.35-.43.63-.6A.28.28 0 0 1 3.65 4 .61.61 0 0 1 4 3.72c0-.11.22-.06.16-.16s-.27.15-.37.18c0-.12.16-.1.12-.21-.15.14-.41.17-.52.35-.11 0-.13.17-.27.18s.1-.16.19-.19a1.68 1.68 0 0 1 .7-.5c0-.06.09-.06.11-.1S4 3.29 4 3.35a1.53 1.53 0 0 0-.73.42.37.37 0 0 1-.17.08c-.32.3-.59.62-.91.88-.11.28-.42.56-.55.86-.06 0 0 .06-.1.08s-.06.17-.14.2-.22.3-.25.47c0 0 0-.05-.08 0s0 .09.06.16-.13.18-.13.27 0 0-.06 0 0 0 0 .08-.11.28-.21.41A.22.22 0 0 1 .77 7v-.1c0-.03 0 0 0 0v-.07a9.79 9.79 0 0 0 .42-1 6.39 6.39 0 0 1 .49-.69v-.16c0-.05 0 0 .06 0s0-.07 0-.09c.25-.25.39-.63.73-.82a.27.27 0 0 1 .18-.18 3.45 3.45 0 0 1 .73-.63A5 5 0 0 1 5 2.28c-.06-.07-.11.05-.17 0a1.57 1.57 0 0 0-.83.34c-.21 0-.36.24-.53.23s0 .06-.11.09a2.79 2.79 0 0 1-.55.44v.06A5.79 5.79 0 0 0 1.5 4.77v.07c-.15.18-.27.36-.44.53a.22.22 0 0 1 0 .08.55.55 0 0 0-.21.38C.81 5.89.72 6 .77 6a1.4 1.4 0 0 0-.29.5H.42v.07c0 .07 0 .05-.08.07s0 .28-.11.4 0 .15-.05.2a.9.9 0 0 1-.09.51c0 .24-.09.44 0 .69s0 .3 0 .42c-.09.14.07.33 0 .48a2.24 2.24 0 0 1 .1.77 1.06 1.06 0 0 1 .08.41c.11.24.13.55.23.83s.06 0 .08 0 .16.36.16.54a.94.94 0 0 1 .2.4c.25.3.24.74.49 1.06a.48.48 0 0 1 .24.31h.06c.06 0 .26.18.2.33a.26.26 0 0 1 .16.15.5.5 0 0 1 .27.28c.25.2.45.57.72.75 0 .12.17.12.17.23.17.08.33.33.46.4.15 0 .24.17.36.25s0 0 0 .05c.15 0 .21.16.32.23.44.25 1 .56 1.21.67s.38.18.53.23.59.21.9.29.62.07.87.13a2.16 2.16 0 0 1 .67.07 2 2 0 0 1 1.24.44A9.58 9.58 0 0 1 11 19.91c1.41 2.38 2.48 5.94 3.67 10.75v.07c0 .02 0 .12.09.17s.13.35.05.5c.09.06 0 .17.12.27s.09.24 0 .36.06.25.11.38 0 0 0 .05a2.79 2.79 0 0 1 .16.59c-.05.05-.05.1 0 .18a.75.75 0 0 1 .08.51l.05.07c.05.07.06.22 0 .3s.05.13 0 .17 0 0 .05.08h-.06c0 .09.14.12.06.21a.26.26 0 0 1 .06.28s.06 0 0 .09 0 0 0 .06c0 .19.21.45.12.64s.07.13 0 .18.06 0 .08.05 0 0 0 .07.05.18.07.28.07.23.13.34c.06 0 0 .06 0 .1s.05.07.05.1v.14c0 .04.08.1 0 .15a1.89 1.89 0 0 1 .17.71c0 .05.05 0 .07.08s.07.23.12.35 0 .19.06.27.07.12 0 .17.05 0 .07.07 0 0-.05.06c.13 0 0 .57.18.65 0 .06 0 .1.07.15.2.33.32.89.52 1.17v.06c0 .06.13.13.1.17s.1.07.15.14 0 0 0 .06.15.09.13.15c.19.11.24.42.42.5a.12.12 0 0 1 0 .1 3.37 3.37 0 0 1 .48.52.44.44 0 0 1 .17.21c.2.07.33.39.53.46s.28.16.3.32.38.16.43.32a5.57 5.57 0 0 1 .68.41v.07a.21.21 0 0 1 .27.11 1.41 1.41 0 0 1 .57.14h.3a.46.46 0 0 1 .17.05c.17 0 .29 0 .42.09s.24.12.32.13.18-.09.17 0c.18 0 .32 0 .49.07a.11.11 0 0 0 .05 0 1.53 1.53 0 0 1 .47.07c.23-.09.4 0 .63 0s.29 0 .41.08l.06-.06a3 3 0 0 0 1-.24c.14 0 .27-.07.41-.07s.33 0 .45-.14c.1.05.17-.08.26 0a.25.25 0 0 1 .22-.05c.12-.09.25 0 .36-.12s0 0 .06 0 .21-.07.35-.14.17 0 .18 0 0-.13.08-.08.41-.15.57 0a.31.31 0 0 1 .19 0s.34 0 .45.11a1.16 1.16 0 0 1 .46.27 2.57 2.57 0 0 1 .29.28c.3.18.17.14.32.45a.82.82 0 0 1 .18.48c.16.09.07.4.13.59v.05l.06.09c-.05.18.09.41 0 .58.06 0 .07.22 0 .29.11.23 0 .49 0 .73 0 0 0 .07-.05.1s0 .13-.05.17 0 .16-.09.23a1.11 1.11 0 0 1-.31.54.28.28 0 0 1-.14.28.07.07 0 0 1 0 .09 2.72 2.72 0 0 0-.33.66 4.3 4.3 0 0 1-.24.48c-.07 0-.18.35-.24.33a.45.45 0 0 1 0 .23.06.06 0 0 0-.08.07s.06 0 0 0h-.08c-.08 0-.1.23-.13.35s-.08 0-.12.06 0 0 .05 0c-.2.21 0 .47-.24.67 0 .07.13.12 0 .16a.19.19 0 0 1-.1.22c0 .26-.18.46-.16.71s0 .32-.1.46a.53.53 0 0 1-.11.36c.06.14.15.29.05.4a2.61 2.61 0 0 1 0 .48v.13a9.61 9.61 0 0 0 .17 1.78h.07c.01 0-.05.05 0 .08a6 6 0 0 0 .7 1.69h.07s.16.15.16.3.17.15.28.21.08.17.17.2a5 5 0 0 0 .49.62c.23.18.33.36.55.54.54.38.7.77 1.3 1.13.76.4 1.55.77 2.32 1.15h.14c-.07 0-.17-.07-.23-.14s-.12 0-.11-.07.18 0 .21.1 0 .06 0 0 .21.12.39.12v-.06c0-.06.27.1.4.15a.29.29 0 0 0 .1.12c0-.06.12 0 .16-.09a5.64 5.64 0 0 0 1 .27l1.47.18c-.08-.07-.24-.06-.36-.1s0 0 0-.09l-.42-.06c0 .05.08.07 0 .12s-.21-.08-.26-.18c0 .1-.1.15-.19.11s0-.08.06-.13a8.07 8.07 0 0 1-1.14-.11h-.11c-.34-.24-.8-.37-1.13-.63.21.05.36.22.58.21a.52.52 0 0 0 .4.16.85.85 0 0 0 .57.18c0 .09.19.08.29.11s.15.09.18 0-.39-.06-.48-.18 0-.08 0-.09c.18 0 .34.14.52.08 0 .1.11 0 .16.06s.1 0 .14 0 .19-.1.21 0h.01c.25.07.56.11.79.16 0-.08.06-.13.08-.2a.26.26 0 0 0 .25.07s-.05.09 0 .07 0 0 0-.06.27 0 .37 0-.06 0-.07-.06.18 0 .21-.06h-.3c0 .08-.1.11-.12 0s.05 0 .08 0-.19-.07-.23 0a.43.43 0 0 1 .12 0s0 .09-.05.12 0-.09 0-.08a.2.2 0 0 0-.2 0v-.14a.39.39 0 0 1-.19-.06h-.05a.11.11 0 0 0-.08 0h-.22c-.07 0-.5-.06-.51-.23.11.12.33 0 .43.14 0-.1.21 0 .28 0-.1 0-.22-.09-.31 0s0 0 0-.06c-.16 0-.26-.1-.36 0-.13-.18-.43-.11-.59-.22s0 0-.09 0-.06 0-.07-.07c-.16-.06-.33-.1-.48-.17a.38.38 0 0 1-.16-.12 3.69 3.69 0 0 1 .64.22h.09c.09 0 .14.1.24.06a8.66 8.66 0 0 0 1.06.29h.06a.44.44 0 0 0 .3.07 1.27 1.27 0 0 0 .48.07h.18c.03 0 0 0 0 0a.25.25 0 0 0 .12 0 1 1 0 0 0 .45.1 2.26 2.26 0 0 0 .52 0 2.51 2.51 0 0 0 .57 0c.19.07.52 0 .63 0s.1 0 .09-.09a11.57 11.57 0 0 0-1.18 0c-.44 0-.87-.07-1.2-.07 0 0 0-.05 0 0s-.11-.05-.22 0-.16 0-.26 0-.08 0-.1-.08a.32.32 0 0 0-.14 0 .22.22 0 0 0-.22-.07.32.32 0 0 0-.34 0c-.11-.1-.26 0-.35-.16s.05 0 .07 0-.09 0-.06-.09.06 0 .11.06 0-.06.07 0a.06.06 0 0 1 0 .09.1.1 0 0 0 .12-.08l-.64-.2c-.32-.08-.62-.18-.93-.27 0-.06-.1-.13-.21-.12s-.24-.1-.23-.21.15 0 .17.11.26.08.35.19h.08a1.81 1.81 0 0 0 .69.23 7.4 7.4 0 0 0 1 .26v-.08c0 .17.23.1.33.07a.51.51 0 0 0 .13 0c0-.08.06-.08.12-.12a.21.21 0 0 1 .16.18h.05c0-.05-.06-.09 0-.13s.17 0 .2.06.13 0 .19-.07a.24.24 0 0 0-.3 0c-.1-.09-.27 0-.35-.17s.18 0 .18.07 0-.06.09-.07.2 0 .27.07-.08 0-.06 0 .25-.11.39 0 0-.08 0-.08a.85.85 0 0 1 .22 0v.1c0 .04.18-.06.21.05a.19.19 0 0 1 .25 0c.08-.08.2 0 .32 0h-.13c-.01 0 .24 0 .29-.07-.12 0-.18-.09-.31-.08s0 0 0 .06-.12-.08-.21 0-.09 0-.13 0 0-.05-.07-.05l-1.17-.18s.09.08.06.12a.57.57 0 0 1-.34-.11h-.08a5.37 5.37 0 0 1-.75-.23.66.66 0 0 1-.49-.27c.14 0 .25.08.34 0a.88.88 0 0 1 .33.13c.07-.08.21.1.28 0-.11 0-.19-.13-.31-.09s-.32 0-.38-.2c-.31-.1-.62-.26-1-.37-.05-.06-.12-.09-.17-.15s-.26-.14-.34-.21a3.69 3.69 0 0 0 1.13.34c0-.06.07 0 .08-.08.29.19.63.14 1 .28 0 0 0-.06.11 0s.09 0 .12.1 0 .13.08.14 0-.06 0-.07v.06c.06 0 .12-.1.17 0s-.06 0-.07 0a.17.17 0 0 0 .17 0c.09.07.28.17.38.07s0 0 0 .08.27.07.4 0c.13.1.42 0 .59.09s.07-.06.13-.08 0 0 .11 0a.51.51 0 0 0 .22.11s.16 0 .18-.09.22 0 .27.07a3 3 0 0 1 .68 0s0-.08.06-.11 0 .1.12.13c0-.12.09-.14.17-.2s-.31 0-.38.08a1.25 1.25 0 0 0-.61 0c-.12 0-.21-.06-.33-.07s-.27 0-.41 0h-.09a.83.83 0 0 1-.15 0 2.33 2.33 0 0 1-.44 0h-.08c-.08 0 0 0 0 0a3.56 3.56 0 0 1-1.18-.78 1.17 1.17 0 0 0 .27 0c0 .06.14.06.22.08s-.05 0-.05-.1a1.35 1.35 0 0 1-.54-.14h-.19a.32.32 0 0 0-.28-.08s-.09-.05-.1-.1-.12 0-.2 0-.25-.11-.38-.16-.23-.06-.23-.16.08.06.17 0c0 .12.2.11.32.15a.17.17 0 0 0 0-.14h-.11s0 .08 0 0-.23-.1-.29-.21a2.44 2.44 0 0 0 .26.06v-.07a3.65 3.65 0 0 0 1 .23c-.1-.1-.27-.09-.38-.14s-.05 0-.11 0-.05-.07-.07-.1-.24-.14-.42-.13c-.28-.17-.68-.22-.88-.47.37.06.73.4 1.11.34.08.14.3.06.43.14-.06-.06-.06-.13-.12-.17s0 0 0 .06a.07.07 0 0 1-.06-.1c-.13 0-.2-.09-.34-.09a.28.28 0 0 0-.26-.1c-.05-.11-.22-.08-.25-.2s.11 0 .16.07.13 0 .17 0 .06.07.11.09h.1c.13 0 .22.14.33.05a.28.28 0 0 0 .34.08c0 .06.05.06.08.09s.22.1.38 0 .06 0 .1.06c.3 0 .61.08.87.08a1.08 1.08 0 0 0 .68.08h.09a2.1 2.1 0 0 1 .5 0v-.07c0-.07-.06 0-.13-.06s0 0 0 .05-.11 0-.13 0 .06 0 0 0c-.25 0-.48-.1-.73-.11a.08.08 0 0 0 0-.05c-.08.05-.21 0-.13-.11.08.13.27.05.37.07s0-.06 0-.06h.12c.05 0 0 .06 0 .06h.76c0-.05.05 0 0-.05A6.92 6.92 0 0 1 39.4 59v-.06c0-.06-.08 0-.14 0s0 0 0-.06a.49.49 0 0 1-.13 0s.07 0 0 0a.2.2 0 0 0-.11 0v-.06c-.37-.08-.7-.21-1.07-.3h-.05l-.76-.34c0-.08-.1-.17 0-.2s0 0 0 .06c.26.09.5.32.78.28 0 .06.07.06.14.06a.24.24 0 0 1-.08-.06 5.06 5.06 0 0 1-1.36-.63 4.64 4.64 0 0 1-1-.85 3.19 3.19 0 0 1-1.22-2.89 1.66 1.66 0 0 1 .15-.6 1 1 0 0 1 .12-.35 2.11 2.11 0 0 1 .3-.75 2.94 2.94 0 0 1 .3-.55 12.1 12.1 0 0 0 1.52-5.81 2.83 2.83 0 0 1 0-.3 2 2 0 0 1-.16-.9 3.87 3.87 0 0 0 0-.48 2.26 2.26 0 0 1-.11-.22.2.2 0 0 1 0-.16.53.53 0 0 1 0-.12 4.13 4.13 0 0 0-.15-.5 2.36 2.36 0 0 1-.46-.87c0-.21-.32-.35-.28-.54-.09 0-.1-.1-.16-.18s0 0-.06 0 0-.11-.06-.15 0-.06.07-.06c-.21-.18-.36-.48-.58-.53 0-.16-.21-.2-.3-.3s0-.1-.07-.14a1.05 1.05 0 0 0-.11-.07 8.19 8.19 0 0 0-.73-.55v.1c0 .03-.05-.12-.06-.17a1.17 1.17 0 0 0-.28-.17 7.35 7.35 0 0 0-1.06-.68s-.07 0-.05.08.08 0 .1.11v.06A.31.31 0 0 1 32 39c.05 0 0 0 .08-.05s0-.1 0-.16-.27-.21-.4-.11a1.35 1.35 0 0 0-.74-.26c-.14 0-.31-.08-.43-.11a1.48 1.48 0 0 0-.21 0c-.11 0-.2-.09-.3-.1s-.23 0-.33 0a2.45 2.45 0 0 0-.61 0h-.07c-.23 0-.51 0-.76.12a.82.82 0 0 0-.3.12.5.5 0 0 0-.43.14c-.33 0-.62.29-.94.34-.14.14-.32.07-.47.23h-.08c-.03 0 0 .06-.09.09s-.35.16-.59.11a.25.25 0 0 0-.07.08c-.11 0-.26.05-.36 0-.1.08-.17 0-.24 0a.58.58 0 0 1-.34-.07c-.07.08-.19 0-.26 0a.07.07 0 0 0 0-.06c-.08 0-.19 0-.24-.07s-.15-.08-.23-.14-.12-.13-.22-.15a3.34 3.34 0 0 0-.4-.35 1.79 1.79 0 0 0-.25-.42 10.35 10.35 0 0 1-.83-2.18c-.07-.41-.26-.83-.35-1.23s-.07-.33-.17-.44a1.71 1.71 0 0 0-.08-.62 1.09 1.09 0 0 1-.11-.55c-.09-.55-.14-1.12-.22-1.67h-.07c-.07 0 0-.15 0-.23v-.05a.54.54 0 0 0 0-.1c0-.11 0-.26-.11-.34s0-.18-.06-.19a.31.31 0 0 0 0 .19s-.12 0-.13.07 0 0 0 .06.07 0 .1 0-.06.06-.12.09 0 .13.07.22-.05.1-.09.1c-.06-.27-.13-.48-.19-.74 0-.05.05 0 .09 0s0-.06.05-.09a.38.38 0 0 1 .05.12c.07-.05.08-.13.13-.16a45.8 45.8 0 0 0-2.45-7.15m17.65 19.18c0 .09.2.28 0 .34a1.48 1.48 0 0 0-.13-.21s0-.12.09-.13M5.36 5.52c0 .08.08 0 .12.06h-.06c-.06-.08-.2 0-.22-.07a.19.19 0 0 0 .16 0m-1.65-.07v.12c0 .04-.33.11-.23.27a.49.49 0 0 0-.24.2c0-.22.26-.47.42-.59m-1.79.71a1.24 1.24 0 0 1 .24-.43.94.94 0 0 1 .27-.44s.06 0 .06.08c-.26.21-.35.58-.57.79m1.79 4.39c-.09-.07-.1-.27-.12-.39s.05 0 .08 0 .05.24 0 .38m.75.73c.14.15.21.4.39.6-.19-.1-.25-.34-.39-.6m1 1.69h-.01a.36.36 0 0 1 0-.11s-.08 0-.09-.06 0-.05 0-.05-.09 0-.15-.08c.16 0 .24.2.36.27s0 0 0 .05m-.09-.42c0-.12-.11-.13-.16-.25.07.05.22.17.22.25a1.11 1.11 0 0 1 .39.35c-.18 0-.28-.32-.45-.35m9.25 9.83v.06a1.62 1.62 0 0 1 .22.41.44.44 0 0 1 .16.26s-.14-.16-.13-.27-.09-.12-.15-.13-.08-.24-.13-.37.07 0 .11 0m-2.07-3.55h-.06c.12.13.19.24.33.41a5 5 0 0 1-.43-.47h.16M14 21.26a1.55 1.55 0 0 1-.36-.52c.23.05.27.39.34.54m-.09-.74s0 .06-.07.07-.1-.1-.12-.2c0 .06.13.07.19.13m-2.38-2.91a1.44 1.44 0 0 1-.38-.36c.13.09.33.21.38.36m5.69 9.46a.58.58 0 0 1-.15-.45c-.13-.11-.1-.41-.24-.52.05-.13-.13-.28-.09-.42s-.12-.08-.08-.16a.11.11 0 0 1-.1 0v-.21c0-.08 0-.06.06-.07s-.1 0-.12 0a.24.24 0 0 0 0-.22c.06 0 .1 0 .11.07 0 .06.08 0 .11.08s.15.28.14.44.08.1.13.15-.05 0 0 .05.17.3.09.42a2.38 2.38 0 0 1 .16.61c0 .05.07.12.13.15s-.05.06-.05.1m-1.4-3.66c0-.05-.05 0-.06 0s-.1-.1 0-.14 0-.05-.06 0 0-.08 0-.13 0 0 .07-.07a.79.79 0 0 1 .15.4s.1.13.05.19-.17-.15-.09-.17m.25 1.23c0-.14-.11-.23-.13-.38.09.08.1.24.17.31s0 .05 0 .06h-.05m-2.49-4.92v-.11c0-.01-.06 0-.08-.07 0-.21-.2-.31-.24-.47s-.17-.13-.12-.2a.42.42 0 0 1-.12-.23h.07c.13.19.28.46.42.68 0 0 .05.08 0 .1s.08 0 .11.08a.22.22 0 0 0 .13.2c.24.53.53.81.75 1.34a.13.13 0 0 0 .07.06c0 .11.1.2.14.32s0 0 0 .06.21.21.17.37a1.79 1.79 0 0 1-.16-.37c0-.09-.1-.11-.16-.18s0-.12-.07-.18a3 3 0 0 1-.3-.55c-.27-.26-.34-.66-.6-.86m-4.2-3.45c0-.09.14 0 .22-.06s.21.08.15.17l-.37-.11m4.68 5.84c0-.08-.07-.1-.11-.14a1.37 1.37 0 0 0-.23-.38c0-.11-.09-.15-.11-.23v-.06c0-.05-.11-.11-.15-.18s0-.2-.11-.23 0-.07 0-.09-.18-.22-.16-.3a12.06 12.06 0 0 1-.86-1.37h-.1c0-.2-.18-.2-.2-.32s.16.14.19.22a3.09 3.09 0 0 1 .48.58c0 .05.07 0 .11 0s0 .07 0 .1.06 0 .06 0v.05a3 3 0 0 1 .26.38h.05s.21.13.15.23c.09.14.13.37.28.41s0 .07 0 .12.07.08.12.12c.1.35.29.6.44 1h-.07m2.68 8.2c0-.08-.21-.72-.22-.78s.11-.14.12-.18a.83.83 0 0 1-.13-.53.18.18 0 0 0-.08-.09v-.26c0-.09-.06-.13-.11-.16a19 19 0 0 0-.45-2 1.31 1.31 0 0 1-.16-.58 8.25 8.25 0 0 1-.37-1.09.43.43 0 0 1-.15-.29c0-.13-.11-.2-.17-.33s0-.26-.15-.33c-.11-.35-.33-.64-.43-1a2.55 2.55 0 0 1-.32-.56c.17 0 .12.14.21.29s.1.06.11.17a.47.47 0 0 0 .1.1.19.19 0 0 0 .08.16v.11c.26.31.38.84.6 1.15a.59.59 0 0 0 .14.32c0 .34.24.6.28.92a8.93 8.93 0 0 1 .41 1.16 3.62 3.62 0 0 0 .28 1 .82.82 0 0 0 .08.4c0 .14 0 .32.12.45s0 .06 0 .11 0 .19.07.32.14.26.07.39c.13.12.06.37.17.53.07 1-.14.66-.08.57m1.84-1c-.16-.28-.22-.6-.35-.86.13.26.19.58.35.86m1.63.19c.06 0 .08.05.13.08s-.1.06-.15.06h.07a.24.24 0 0 1 .05.1.56.56 0 0 0-.12 0c-.07-.16 0-.2 0-.3m.36 8.55c-.11-.17-.17-.5-.3-.62a1.19 1.19 0 0 0-.11-.42.15.15 0 0 0 0-.2v-.08c0-.08-.07-.07-.1-.13a.37.37 0 0 0 0-.11.58.58 0 0 1 0-.27.75.75 0 0 1-.13-.43.91.91 0 0 1-.11-.46c-.14-.15-.06-.36-.15-.49s0-.21-.05-.31 0 0 0-.06-.06-.08 0-.11 0 .25.16.37c-.07.11 0 .21.06.32a2 2 0 0 0 .05.23c.08.2.06.46.19.65a.15.15 0 0 0 0 .2 8.21 8.21 0 0 0 .2.82c0 .05.07 0 .1.08s0 .31.11.42.18.4.15.6m.19-6a.5.5 0 0 1 0-.16.08.08 0 0 0 .1-.05h-.05a.34.34 0 0 1 0-.31c0 .08.06.09.12.09s0-.05.07-.08 0 .09.05.05-.09.16-.08.24 0 0 .06 0 0 .1 0 .15a.19.19 0 0 0-.23.07m.62 3.54a1.3 1.3 0 0 1-.11-.31h.16a.28.28 0 0 1 0 .12c0 .05.09.1 0 .13s0 0 .05 0v.06h-.08m6.11 3.5a1.63 1.63 0 0 0-.55.11h-.2c.1-.14.31-.13.47-.23s0 0 0 .06a3.08 3.08 0 0 0 .34-.24h.48c.15 0 .1 0 .16-.07a.28.28 0 0 1 .09.07 3.28 3.28 0 0 0-.78.28m3.17 16.06a1.4 1.4 0 0 0 .1.55v.2c-.14-.1-.13-.32-.23-.47s0 0 .06 0a2.84 2.84 0 0 0-.22-.35c0-.15-.05-.33 0-.48s0-.1-.07-.16 0-.06.07-.09a3.51 3.51 0 0 0 .27.79m-2.43-14.9a.54.54 0 0 0 .18-.1 2.39 2.39 0 0 1 .66.08 3 3 0 0 1-.84 0m4-1a1.27 1.27 0 0 1-.83-.12c-.08 0-.14-.06-.23 0s0 0 0-.06a.3.3 0 0 1-.3-.08c-.31.07-.55-.13-.85-.1-.18 0-.3-.14-.49 0a2.07 2.07 0 0 0-.5 0c0-.08-.11 0-.17-.05a.09.09 0 0 0 0-.07h-.13c-.04 0 .17 0 .25-.06s0-.05.05-.05-.25.06-.33 0a.25.25 0 0 1 .23 0s0-.06.08-.08.14.13.21.17.17 0 .26 0-.06 0-.07-.07.15 0 .22 0 0 0 0 .08.26 0 .36 0 0 0 0-.11.11 0 .06.08.11 0 .11.07a1.55 1.55 0 0 1 .47.12s0-.06.06-.07 0 0 0 .07.18 0 .25.14 0 0 .06-.05a.31.31 0 0 1 .16.12c.12 0 .2.08.32.09s0 0-.05-.06-.24 0-.29-.19c.2 0 .29.22.5.21a.16.16 0 0 1 0 .15c.12.16.31 0 .42.17a.1.1 0 0 0 0 .07m-2 15.7a1.37 1.37 0 0 1 .05.58c.07.06 0 .15.1.21s0 0 0 .06a.31.31 0 0 1 .09.29c.21.23.16.55.34.78s0 .33.22.43a2.09 2.09 0 0 0 .25.43c-.05.08 0 .12 0 .18s0 0-.06 0 0 .08 0 .13-.11-.14-.18-.18-.06 0-.07 0 .19.19.15.31c-.08 0-.14-.11-.14-.18s-.08 0-.12 0 0-.19 0-.27-.07-.15-.15-.21 0 .06 0 .1-.11-.12-.11-.19 0 0 .06 0-.16-.2-.13-.34 0 0-.09.07 0-.11 0-.08v-.14a1.22 1.22 0 0 1-.13-.46h-.03c.07 0-.07-.17 0-.29s0 0-.08 0a.25.25 0 0 1 0-.2c-.08-.09 0-.22-.1-.31s0 .05 0 .07.11.21 0 .35c-.08-.18 0-.37-.07-.54s.09-.05.14-.06c.07-.18-.17-.26-.07-.44h.07" transform="translate(-.04)" fill="#7ab0e0"/><path class="cls-3" d="M11.06 1.22s-.11 0-.05.07 0 0 .05-.07" transform="translate(-.04)"/><path class="cls-3" d="M11 1.29c-.06 0 0-.1.05-.07s0 0-.05.07" transform="translate(-.04)"/><path class="cls-5" d="M83.13 50.73l-4.8-9.6H74v9.6h-3.44V27.94h8.83c4.32 0 7.07 2.78 7.07 6.66a6 6 0 0 1-4.54 6l5.25 10.09zm-4-19.73H74v7.14h5.12c2.31 0 3.88-1.31 3.88-3.55S81.44 31 79.13 31M92.9 43.56c0 2.78 1.47 4.54 4.13 4.54a4.84 4.84 0 0 0 3.97-1.66l2.08 2A7.62 7.62 0 0 1 97 50.92c-4.06 0-7.29-2.15-7.29-8.32 0-5.25 2.72-8.29 6.88-8.29 4.35 0 6.88 3.2 6.88 7.81v1.44zm6.85-4.48a3.34 3.34 0 0 0-3.2-2 3.4 3.4 0 0 0-3.24 2 5.07 5.07 0 0 0-.41 2.21h7.29a5.06 5.06 0 0 0-.44-2.21m13.44 18.4a7.5 7.5 0 0 1-5.73-2.15l2.08-2.08a4.57 4.57 0 0 0 3.52 1.44c2.75 0 3.81-1.95 3.81-4.12v-2.08a5 5 0 0 1-4.19 1.85 5.34 5.34 0 0 1-3.87-1.44c-1.57-1.56-1.83-3.84-1.83-6.59s.26-5 1.83-6.6a5.44 5.44 0 0 1 3.9-1.4 5 5 0 0 1 4.29 1.92V34.5h3.16v16.13c0 4-2.62 6.85-6.94 6.85m.38-20.26c-2.94 0-3.32 2.53-3.32 5.09s.38 5.09 3.32 5.09 3.3-2.53 3.3-5.09-.35-5.09-3.3-5.09m11.63-9.38h3.45v3.46h-3.45zm.09 6.66h3.27v16.23h-3.27zm19.3 14.5a6.57 6.57 0 0 1-4.86 1.92 6.5 6.5 0 0 1-4.84-1.92c-1.53-1.6-1.92-3.65-1.92-6.4s.39-4.77 1.92-6.37a6.5 6.5 0 0 1 4.84-1.92 6.57 6.57 0 0 1 4.86 1.92c1.54 1.6 1.92 3.65 1.92 6.37s-.38 4.8-1.92 6.4m-2.46-10.85a3.3 3.3 0 0 0-2.4-.93 3.23 3.23 0 0 0-2.37.93c-1 1-1.12 2.69-1.12 4.45s.13 3.45 1.12 4.44a3.26 3.26 0 0 0 2.37 1 3.33 3.33 0 0 0 2.4-1c1-1 1.12-2.68 1.12-4.44s-.13-3.46-1.12-4.45m18.69 12.58v-9.89c0-2.53-1.44-3.62-3.27-3.62s-3.36 1.12-3.36 3.62v9.89H151V34.5h3.2v1.63a5.82 5.82 0 0 1 4.32-1.82 5.62 5.62 0 0 1 4 1.47 6 6 0 0 1 1.63 4.57v10.38z" transform="translate(-.04)"/><path class="cls-5" d="M189.87 50.73v-9.96h-9.25v9.96h-3.46V27.94h3.46v9.73h9.25v-9.73h3.45v22.79h-3.45z"/><path class="cls-5" d="M207.67 50.73v-1.48a5.31 5.31 0 0 1-4.32 1.67 5.69 5.69 0 0 1-4.35-1.48 5 5 0 0 1-1.28-3.44c0-2.72 1.89-4.68 5.6-4.68h4.29v-1.19c0-2.05-1-3-3.55-3a3.82 3.82 0 0 0-3.56 1.57l-2.14-2c1.54-1.79 3.14-2.33 5.82-2.33 4.45 0 6.69 1.88 6.69 5.57v10.79zm-.06-7.17h-3.81c-1.92 0-2.91.86-2.91 2.33s.93 2.31 3 2.31a3.88 3.88 0 0 0 3-.93 3.26 3.26 0 0 0 .71-2.4zm12.64 7.17a4.15 4.15 0 0 1-4.45-4.49v-18.3h3.27v18.11c0 1.25.44 1.89 1.76 1.89h1.44v2.79zm9.96 0a4.14 4.14 0 0 1-4.45-4.49v-18.3H229v18.11c0 1.25.45 1.89 1.76 1.89h1.44v2.79zm14.33 0v-1.48a5.31 5.31 0 0 1-4.32 1.67 5.7 5.7 0 0 1-4.35-1.48 5 5 0 0 1-1.28-3.44c0-2.72 1.89-4.68 5.6-4.68h4.29v-1.19c0-2.05-1-3-3.55-3a3.8 3.8 0 0 0-3.55 1.57l-2.15-2c1.54-1.79 3.14-2.33 5.82-2.33 4.45 0 6.69 1.88 6.69 5.57v10.79zm-.06-7.17h-3.81c-1.92 0-2.91.86-2.91 2.33s.93 2.31 3 2.31a3.91 3.91 0 0 0 3.05-.93 3.27 3.27 0 0 0 .7-2.4zm18.18 7.17v-9.89c0-2.53-1.44-3.62-3.27-3.62S256 38.34 256 40.84v9.89h-3.26V34.5H256v1.63a5.82 5.82 0 0 1 4.32-1.82 5.62 5.62 0 0 1 4 1.47 6 6 0 0 1 1.63 4.57v10.38zm17.6 0V49a5 5 0 0 1-4.26 1.92 5.61 5.61 0 0 1-4-1.44c-1.64-1.63-1.83-4.42-1.83-6.88s.19-5.22 1.83-6.85a5.49 5.49 0 0 1 3.93-1.44 5 5 0 0 1 4.26 1.82v-8.19h3.26v22.79zm-3.42-13.51c-2.95 0-3.4 2.5-3.4 5.38s.45 5.41 3.4 5.41 3.36-2.53 3.36-5.41-.42-5.38-3.36-5.38" transform="translate(-.04)"/></g></g></svg>